<svg width="24" height="24" viewBox="0 0 24 24" fill="none" xmlns="http://www.w3.org/2000/svg">
<g clip-path="url(#clip0_586_173)">
<path d="M12.9469 3.04688C13.165 2.48063 13.5496 1.99382 14.0501 1.6507C14.5505 1.30758 15.1432 1.12428 15.75 1.125" stroke="#180E19" stroke-width="1.3" stroke-linecap="round" stroke-linejoin="round"/>
<path d="M20.4844 15.2719C19.3031 18.1594 17.1656 20.25 15.375 20.25H8.625C6 20.25 2.625 15.75 2.625 10.875C2.62539 9.7893 2.93996 8.72692 3.53076 7.81605C4.12156 6.90518 4.96334 6.18475 5.95452 5.74169C6.94569 5.29864 8.04391 5.15189 9.11664 5.31916C10.1894 5.48644 11.1908 5.96058 12 6.68437V6.68437C12.5728 6.1712 13.2448 5.78094 13.9743 5.5377C14.7039 5.29447 15.4756 5.20342 16.2418 5.2702C17.008 5.33697 17.7523 5.56015 18.4288 5.92593C19.1053 6.29172 19.6996 6.79234 20.175 7.39687V7.39687C19.486 7.81293 18.9211 8.40618 18.5394 9.11479C18.1576 9.8234 17.9729 10.6214 18.0045 11.4257C18.0361 12.23 18.2829 13.0111 18.719 13.6876C19.1552 14.364 19.7648 14.9112 20.4844 15.2719V15.2719Z" stroke="#180E19" stroke-width="1.3" stroke-linecap="round" stroke-linejoin="round"/>
</g>
<defs>
<clipPath id="clip0_586_173">
<rect width="24" height="24" fill="white"/>
</clipPath>
</defs>
</svg>
