<svg width="16" height="16" viewBox="0 0 16 16" fill="none" xmlns="http://www.w3.org/2000/svg">
<g clip-path="url(#clip0_825_719)">
<path d="M12.6667 7.33331H3.33333C2.59695 7.33331 2 7.93027 2 8.66665V13.3333C2 14.0697 2.59695 14.6666 3.33333 14.6666H12.6667C13.403 14.6666 14 14.0697 14 13.3333V8.66665C14 7.93027 13.403 7.33331 12.6667 7.33331Z" stroke="#180E19" stroke-width="1.5" stroke-linecap="round" stroke-linejoin="round"/>
<path d="M4.6665 7.33331V4.66665C4.6665 3.78259 5.01769 2.93475 5.64281 2.30962C6.26794 1.6845 7.11578 1.33331 7.99984 1.33331C8.88389 1.33331 9.73174 1.6845 10.3569 2.30962C10.982 2.93475 11.3332 3.78259 11.3332 4.66665V7.33331" stroke="#180E19" stroke-width="1.5" stroke-linecap="round" stroke-linejoin="round"/>
</g>
<defs>
<clipPath id="clip0_825_719">
<rect width="16" height="16" fill="white"/>
</clipPath>
</defs>
</svg>
